<svg id="Camada_14" data-name="Camada 14" xmlns="http://www.w3.org/2000/svg" viewBox="0 0 500 500"><defs><style>.cls-1{fill:#1c3047;}.cls-2{fill:#fcd6d9;}.cls-3{fill:#c7d6fe;}.cls-4{fill:#fed5d9;}.cls-5{fill:#fdd5d9;}.cls-6,.cls-7{fill:#dd6876;}.cls-7{opacity:0.5;}.cls-8{fill:#1c1b20;}.cls-9{fill:#3d5174;stroke:#c7d6fe;stroke-miterlimit:10;}.cls-10{fill:#c6d6fd;}.cls-11{fill:#c3d5fe;}</style></defs><path class="cls-1" d="M420,147c-.12-2.14-.78-10.47-6.85-20.45-8.63-14.21-41.82-49.47-78.1-80.41-.52-.46-1.06-.91-1.59-1.34-14-11.59-32.2-18.48-48.42-19.06a72.58,72.58,0,0,0-31.12,6.06c-2.89-2.11-6.34-3.22-9.75-1-8.34,5.53-59.1,45.15-61.46,71.35h0c-7.23,6.44-9.87,8.44-14.29,14.12-13.11,16.82-28.49,48.71-18,64.77,8.66,13.27,28.71,6.11,37.49,22.35,4.83,9,.57,14.51,5,22.35,7.41,13,27.77,12.89,45.42,13.26,76.79,1.58,77.92,11.09,109.57,2.65,9.59-2.56,49.86-13.3,51.54-32.58,1.06-12.28-14.13-21-10.82-30.68,2.68-7.75,18.3-.81,26.68-11C420.8,160.79,420.24,151.1,420,147Zm-76.17-12.85a9.51,9.51,0,0,1-1.78-.17c-4,24.83-19.57,44.92-39.9,52.49v37.65c-11.94,13.15-31.57,10.79-39.82.15-.38-.5-.78-1-1.18-1.47l-.24-38.66c-18.4-9.25-31.94-29.11-35-53a10,10,0,0,1-3.73.73c-6.83,0-12.36-7-12.36-15.71s5.53-15.71,12.36-15.71a10.11,10.11,0,0,1,5.4,1.59c7.09-28.63,29.73-49.56,56.57-49.56,27.18,0,50.06,21.46,56.84,50.64a9.29,9.29,0,0,1,2.79-.42c6.82,0,12.36,7,12.36,15.71S350.65,134.16,343.83,134.16Z"/><path class="cls-2" d="M356.19,122.78c0,8.38-5.54,15.17-12.36,15.17a9.51,9.51,0,0,1-1.78-.16c-4,24-19.57,43.38-39.9,50.69v36.36c-11.94,12.7-31.57,10.43-39.82.15-.38-.48-.78-1-1.18-1.42l-.24-37.34c-18.4-8.93-31.94-28.11-35-51.15a10.42,10.42,0,0,1-3.73.7c-6.83,0-12.36-6.79-12.36-15.17s5.53-15.17,12.36-15.17a10.41,10.41,0,0,1,5.4,1.53c7.09-27.65,29.73-47.86,56.57-47.86,27.18,0,50.06,20.72,56.84,48.9a9.6,9.6,0,0,1,2.79-.4C350.65,107.61,356.19,114.4,356.19,122.78Z"/><path class="cls-2" d="M176.56,141.6c-4.83.78-9,3.11-13.4,5.35a8.84,8.84,0,0,1-.45-1.58c-1.21-20.24-2.85-36.42-4.66-50.12-.53-4-1.41-7.81-1.41-7.81-.7-3-1.44-5.47-2-7.25a15.49,15.49,0,0,0-1.53-3.69c-1-1.81-2.25-3.93-4.18-4.31-2.08-.41-4,1.42-5.32,2.69-.65.62-3.25,3.23-4.6,8.69l-.09.4,0-.07c0-.13-.05-.26-.07-.39-.79-4.2-2.48-11.23-5.88-16.69-1-1.65-2.27-3.23-4.18-3.6q-2.34-.45-5.19,1.78c-3.34,2.61-3.66,6.5-4.57,10.16a15.37,15.37,0,0,0-1.27,2.74,16.45,16.45,0,0,0-.58,2c0-.63-.08-1.26-.15-1.9-.06-.11-.11-.23-.17-.34-.59-1.2-1.12-2.45-1.82-3.58-1.64-2.6-2.84-5.29-7-5.27s-6.16,2.52-7.45,5.47a36.09,36.09,0,0,0-3.48,15.84c-.15,2.85-.15,5.68,0,8.5L95.64,99.9c-1.41-.57-7.42-2.76-11.6.36-.61.45-3.87,2.39-3.93,9.87,0,5.42.94,10.85,1.5,16.27.86,8.38,4.4,16.53,1.33,25.24-4.61,13.08-3.35,26.32-.45,39.59,1.36,6.24,4.37,11.78,6.46,17.7,1.84,2.59,4.72,6.56,8.42,11.34,1.65,2.13,3.2,4.08,3.51,4.46,1.79,2.15,8.72,7.5,43.38,1.34,10.1-3.31,23.73-10,23.1-15.85-.27-2.48-3-3.58-3.33-7.45s1.74-6.76,3.32-9c6.05-8.44,13.29-18.1,17.9-25.26a34.09,34.09,0,0,0,5.22-12.34C192.53,146.86,186,140.08,176.56,141.6ZM97.23,102.39a8.29,8.29,0,0,1,.17,1.87C97.33,103.64,97.28,103,97.23,102.39Z"/><path class="cls-3" d="M434.23,465.39H386.92c-2.77-4.23-1.95-9.11-2.52-13.67-3.81-30.11-9.06-60-17.77-89.2-3.46-11.6-7.47-23.15-14.83-33.3a18.35,18.35,0,0,0-1.95-2.68c-1.51-1.47-3-4.37-5.35-2.86s-1.85,4.52-.32,6.88c16.65,25.74,21.68,54.78,27.14,83.72,2.61,13.85,4.32,27.81,6.33,41.74.46,3.18,1.3,6.46-1.12,9.37h-165c-1.43-1.53-1-3.32-1-5.13.49-16.55,2-33,2.95-49.56.81-14.17,1.7-28.36,3-42.52.72-8.06.93-16-3.06-23.76-2.26-4.39-4.74-6.13-9.85-6.44-12.44-.77-24.87-1.72-37-4.64-21.54-5.16-39.93-14.76-52.91-32.2-12.46-16.73-17.72-35.36-16-55.63.32-3.92-.45-7.91.8-11.77a22.53,22.53,0,0,1,.13-4.8s-4-6.32,5.28-7.1,34.84,8.11,64-16.06c0,0,16.25,17.53,21.33,31.48a28.39,28.39,0,0,1,2.56,4.72,37.68,37.68,0,0,1,2.87,12.83c.16,2.51,0,5,.1,7.54.1,1.65.36,3.52,2.56,3.62,2.54.12,2.32-2,2.39-3.51.13-3.23-.06-6.46,0-9.69.06-3.52,2-4.49,5.1-2.53s4.76,5.07,6.48,8.09c.94,1.65,1.67,4.55,4.18,3.43,2.76-1.24.84-3.79,0-5.65-1.89-4.26-5.32-7.38-9-10.29-1.24-1-3.27-1.42-3-3.53,2.52-1.45,5-2.89,7.6-4.28,11.83-6.47,24.06-12.1,37.65-14.9,3.09-.63,6.18-2.28,9.41-.37,4.57,12.08,10.53,15.8,24.58,16.13,8.23.2,16-.93,23.12-4.88a6.84,6.84,0,0,1,5.5-.62c10.47,3.36,19.56,9.13,28.63,14.82,22.16,13.91,40,31.56,50.15,55,6.77,15.67,11.54,32,16.11,48.41q14.46,51.69,27.35,103.75C434.22,458.63,435.51,461.92,434.23,465.39Z"/><path class="cls-4" d="M97.4,104.26c-.07-.62-.12-1.25-.17-1.87A8.29,8.29,0,0,1,97.4,104.26Z"/><path class="cls-5" d="M97.4,104.26c-.07-.62-.12-1.25-.17-1.87A8.29,8.29,0,0,1,97.4,104.26Z"/><path class="cls-6" d="M97.24,85.75c.76,8.32,1.26,14.69,1.55,18.55.56,7.58,2.59,15,4.2,22.39.83,3.82,2.24,5.44,6.71,4.47,6.7-1.44,6.74-1,5.38-7.41-2.62-12.33-2-24.66.12-37,.51-2.92,1.16-5.82,1.74-8.73l3.3-8.1a140.08,140.08,0,0,0-2.86,20.65c-.29,4.47-.29,7.7-.27,10.73,0,15.26.16,23,4.41,26.41,3.26,2.64,8.74,3.5,10.67,1.53a4.16,4.16,0,0,0,.83-3.13c-.63-11.33,2.87-30.66,3.75-34.93A60.86,60.86,0,0,1,141,78.42c-.37,5.59-.85,10-1.18,12.86-.3,2.47-2.5,20.73-1.9,34.23a6.68,6.68,0,0,0,1.19,4.26c3.28,4,12.82,1.9,13.63,4.15a3.09,3.09,0,0,1,.09,1.58c-.52,2.1-2.23,1.69-3.66,1.41-7.3-1.42-14.57-2.94-22.1-2.92-10.56,0-20.81,1.34-30.37,6.17-.46.23-2.07,1.2-3.07.58a2.36,2.36,0,0,1-.68-2.69c.39-1,1.38-1.17,3-2.14a14.82,14.82,0,0,0,3.23-2.65,5.76,5.76,0,0,0,.25-.57c.91-2.46-2.28-24.6-3.47-32.67-.07-1.55-.07-3.22,0-5A51.53,51.53,0,0,1,97.24,85.75Z"/><path class="cls-6" d="M120.86,167c.4-1.74,4.12-17.4,6.31-17.59a3.6,3.6,0,0,1,1.63.26c2,1,1.85,2.31.8,4.44-6.17,12.49-7,24.79,2.37,36.32a2.42,2.42,0,0,1,.69,1.74,2.34,2.34,0,0,1-1.46,2c-.56.18-1.45.1-3-1.34-4-3.69-5.71-9.68-5.71-9.68A47.61,47.61,0,0,1,120.86,167Z"/><path class="cls-6" d="M281.53,121.17c0-5.27,0-10.54,0-15.81,0-1.32-.07-2.82,1.79-3,2.18-.17,2.27,1.41,2.27,3q0,7.92,0,15.82Z"/><path class="cls-2" d="M139,83.57l-.09.4,0-.07c0-.13-.05-.26-.07-.39Z"/><path class="cls-1" d="M215.31,261.76c-2.51,1.12-3.24-1.78-4.18-3.43-1.72-3-3.38-6.11-6.48-8.09s-5-1-5.1,2.53c-.05,3.23.14,6.46,0,9.69-.07,1.54.15,3.63-2.39,3.51-2.2-.1-2.46-2-2.56-3.62-.15-2.51.06-5-.1-7.54A37.68,37.68,0,0,0,191.64,242l19.26-4c-2.55,1.39-5.08,2.83-7.6,4.28-.27,2.11,1.76,2.56,3,3.53,3.7,2.91,7.13,6,9,10.29C216.15,258,218.07,260.52,215.31,261.76Z"/><path class="cls-1" d="M376.53,465.39c2.42-2.91,1.58-6.19,1.12-9.37-2-13.93-3.72-27.89-6.33-41.74-5.46-28.94-10.49-58-27.14-83.72-1.53-2.36-2.12-5.33.32-6.88s3.84,1.39,5.35,2.86a18.35,18.35,0,0,1,1.95,2.68c7.36,10.15,11.37,21.7,14.83,33.3,8.71,29.23,14,59.09,17.77,89.2.57,4.56-.25,9.44,2.52,13.67Z"/><path class="cls-1" d="M311.16,233.37s-19.32,9.77-29.28,8.39h0a37.53,37.53,0,0,1-17.75-4.53c-4.77-2.49-6.54-6.77-6-12-1.18-1.66-1.26-3.24.38-4.68.88,1,1.78,2,2.65,3.07.4.47.8.94,1.18,1.42,8.25,10.28,27.88,12.55,39.82-.15a30.6,30.6,0,0,0,2.46-3,3.91,3.91,0,0,1,.48,2.11,1.68,1.68,0,0,0,1,1.67C310,226.43,311.16,233.37,311.16,233.37Z"/><ellipse class="cls-7" cx="256.3" cy="128.47" rx="21.71" ry="12.11"/><ellipse class="cls-7" cx="311.76" cy="129.54" rx="21.71" ry="12.11"/><path class="cls-1" d="M265.09,109.43c.35,6.59-3,12.1-7.53,12.35-4.08.22-7.69-4-8.61-9.64h0c-.11-.42-.19-.86-.26-1.3a14.88,14.88,0,0,1,.25-6c-4.95,0-8.27-5.82-9.28-7.94,1.68,2.93,14.1,1.3,14.1,1.3a15.4,15.4,0,0,1,2.5-.34,8.18,8.18,0,0,1,2.89.28c2.5.83,4.89,4.16,5.63,8.12a16.76,16.76,0,0,1,.27,2.49v0C265.07,109,265.08,109.23,265.09,109.43Z"/><path class="cls-8" d="M244.59,89.54c1.54-.68,3-1.38,4.54-2a40,40,0,0,1,4.5-1.64,17.18,17.18,0,0,1,4.58-.74,12.86,12.86,0,0,1,2.3.21,14.72,14.72,0,0,1,2.31.68l.37-.55A8.22,8.22,0,0,0,261,83.93a10,10,0,0,0-2.63-.79,12.86,12.86,0,0,0-5.39.37,17.63,17.63,0,0,0-4.84,2.12,16.27,16.27,0,0,0-4,3.39Z"/><path class="cls-1" d="M302.81,109.43c-.36,6.59,3,12.1,7.53,12.35,4.08.22,7.69-4,8.6-9.64h0c.11-.42.2-.86.27-1.3a15.06,15.06,0,0,0-.25-6c5,0,8.27-5.82,9.27-7.94-1.68,2.93-14.1,1.3-14.1,1.3a15.16,15.16,0,0,0-2.49-.34,8.22,8.22,0,0,0-2.9.28c-2.49.83-4.88,4.16-5.62,8.12a16.76,16.76,0,0,0-.27,2.49v0C302.83,109,302.82,109.23,302.81,109.43Z"/><path class="cls-8" d="M323.3,89.54c-1.54-.68-3-1.38-4.53-2a40.14,40.14,0,0,0-4.51-1.64,17.18,17.18,0,0,0-4.57-.74,12.78,12.78,0,0,0-2.3.21,14.72,14.72,0,0,0-2.31.68l-.38-.55a8.43,8.43,0,0,1,2.2-1.56,10,10,0,0,1,2.62-.79,12.91,12.91,0,0,1,5.4.37,17.44,17.44,0,0,1,4.83,2.12,15.91,15.91,0,0,1,4,3.39Z"/><path id="orelha" class="cls-6" d="M218.07,121.62c.56,3.88,2.75,6.92,5.27,7.69l.06.41a8.8,8.8,0,0,1-2.52-17.39l.06.41C218.74,114.2,217.51,117.74,218.07,121.62Z"/><path id="orelha-2" data-name="orelha" class="cls-6" d="M348.41,122.34c-.56,3.88-2.75,6.92-5.27,7.69l-.06.41a8.8,8.8,0,0,0,2.51-17.39l-.06.41C347.73,114.92,349,118.46,348.41,122.34Z"/><path class="cls-1" d="M333.47,80.05c-44.4,2.4-72.37-15.63-72.37-15.63S230.46,103.94,227.63,107s-8.47-49.58,28.67-58.83,58.61-7.11,67.42,2.49S333.47,80.05,333.47,80.05Z"/><path class="cls-9" d="M343.08,145.33c-1.5.54-2.65,1-3,3.08-3.45,18.71-14.34,31.65-31.32,39.75-9,5.09-18.89,5.87-28.83,5.37a52.07,52.07,0,0,1-17.61-3.93,9.79,9.79,0,0,1-4-2.54c-15.55-7-24.87-19.09-29.26-35.34-.61-2.24,0-5.2-3-6.36-1.19-4.58-.67-9.25-.54-13.87.14-5,1.06-5.55,6.33-5,12.9,2.62,25.75,4.38,37.94-2.8a58.87,58.87,0,0,1,12-2.66,33,33,0,0,1,4.45,0,26.71,26.71,0,0,1,7.05,1.6c9,4.43,18.14,8.28,28.63,7Q327.5,129,333,128c8-1.37,9.51-.22,9.59,8,0,.9,0,1.79,0,2.68A48.88,48.88,0,0,0,343.08,145.33Z"/><path class="cls-3" d="M288.73,150.63c-13.15-.6-25.28-2.19-37-6-1.37-.44-4-.33-3.15-2.75.68-1.95,2.74-1.27,4.36-.73,20.33,6.79,41,7.06,61.83,3,1.4-.27,3.22-1.4,3.82.61.69,2.31-1.39,2.44-3.05,2.84C306.42,149.75,297.1,149.68,288.73,150.63Z"/><path class="cls-10" d="M291.38,159.57c-8.95.09-18,.71-26.53-2.84-1.59-.66-4.32-.76-3.64-3.14.86-3,3-.68,4.42-.18,12.24,4.26,24.82,3.47,37.41,2.64,2.3-.15,6-1.84,6.41,1.14.57,4.15-3.62,2.06-5.61,2.26C299.72,159.85,295.53,159.57,291.38,159.57Z"/><path class="cls-11" d="M286.58,170.76c-6.67-1-13.44-1.59-19.73-4.35-1.16-.51-2.74-1.16-2.24-2.79.45-1.44,1.74-1.84,3.24-1.06,6,3.13,12.64,3.6,19.15,4.66,1.54.25,4.61-.68,4.48,1.79C291.33,171.93,288.29,170,286.58,170.76Z"/><path class="cls-1" d="M311.69,40.78h0a.45.45,0,0,0,.27-.1c.32-.17.08-.84.1-.65A.13.13,0,0,0,312,40h0l0,0,.23.12.52.24,1.08.48,2.17.94c1.45.61,2.89,1.27,4.34,1.91q4.32,1.94,8.62,4c5.74,2.68,11.34,5.64,16.92,8.65a277,277,0,0,1,32.18,20.33c5.11,3.79,10.12,7.74,14.85,12,2.38,2.13,4.71,4.31,7,6.58s4.41,4.62,6.5,7a103.92,103.92,0,0,1,11.21,15.56,76.29,76.29,0,0,1,4.33,8.56,65,65,0,0,1,3.16,9l-.95.31a83.34,83.34,0,0,0-3.94-8.52c-1.46-2.76-3.11-5.4-4.83-8a123.66,123.66,0,0,0-11.6-14.62,205.78,205.78,0,0,0-28-24.9,358.9,358.9,0,0,0-31.38-20.8c-5.4-3.22-10.92-6.24-16.44-9.27q-4.15-2.26-8.35-4.45L315.46,43l-2.1-1.1-1.05-.57-.53-.3-.28-.18-.09-.07-.05,0a1.36,1.36,0,0,1-.12-.12c0,.17-.23-.53.1-.72a.66.66,0,0,1,.33-.12l.16,0Z"/><path class="cls-1" d="M371.41,176.9a82.26,82.26,0,0,1,12.3,7.35c1.94,1.41,3.83,2.89,5.63,4.49a56.1,56.1,0,0,1,5.18,5,37.35,37.35,0,0,1,7.82,12.35,19.46,19.46,0,0,1-.22,14.53l-.94-.33a21.23,21.23,0,0,0-1.3-13.25,35.65,35.65,0,0,0-3.26-6,57.39,57.39,0,0,0-4.24-5.42,90.89,90.89,0,0,0-10.12-9.57c-3.63-2.95-7.41-5.77-11.33-8.36Z"/></svg>